<?xml version="1.0" encoding="utf-8"?>
<!-- Generator: Adobe Illustrator 27.0.0, SVG Export Plug-In . SVG Version: 6.00 Build 0)  -->
<svg version="1.1" id="Layer_1" xmlns="http://www.w3.org/2000/svg" xmlns:xlink="http://www.w3.org/1999/xlink" x="0px" y="0px"
	 viewBox="195 390 680 300" style="enable-background:new 195 390 680 300;" xml:space="preserve">
<style type="text/css">
	.st0{fill:#AF7D64;}
	.st1{fill:#1C476A;}
	.st2{fill:#507FA9;}
	.st3{fill:#CADBE5;}
	.st4{fill:#97BCD7;}
	.st5{fill:#76A4C6;}
	.st6{fill:#1A1A1A;}
	.st7{font-family:'Kollektif-Bold';}
	.st8{font-size:110.2638px;}
	.st9{font-family:'Kollektif';}
	.st10{font-size:79.2186px;}
</style>
<g>
	<g>
		<g>
			<g>
				<g>
					<path class="st0" d="M384.55,547.23l4.93-31.15v-0.02l0.02-0.02l-20.91-54.86l4.71-38.08l-30.8,4.71l-19.49-9.84l-16.45,7.69
						l-16.45-7.7l-19.49,9.84l-30.8-4.71v0.02l4.71,38.08l-20.9,54.86l4.91,31.19l-14.79,24.55l29.61,70.75l8.17,19.51h38.59
						l3.16-27.28l1.2-10.34h-0.02v-0.02c-0.26-0.11-0.46-0.24-0.69-0.38c-0.24-0.16-0.46-0.29-0.7-0.45
						c-0.24-0.14-0.45-0.29-0.67-0.45c-0.19-0.13-0.35-0.24-0.54-0.37c-0.05-0.06-0.11-0.11-0.18-0.14c-0.19-0.14-0.4-0.3-0.59-0.46
						c-0.21-0.16-0.41-0.33-0.62-0.51c-0.21-0.18-0.4-0.35-0.61-0.54c-0.16-0.13-0.29-0.26-0.43-0.4c-0.08-0.06-0.16-0.14-0.24-0.22
						c-0.16-0.16-0.3-0.3-0.46-0.46c-0.03-0.02-0.06-0.06-0.08-0.1c-0.19-0.18-0.35-0.35-0.49-0.53c-0.21-0.21-0.4-0.43-0.57-0.64
						c-0.34-0.41-0.67-0.83-0.99-1.24c-0.16-0.24-0.32-0.46-0.48-0.69c-0.14-0.21-0.3-0.43-0.43-0.64v-0.02
						c-0.16-0.24-0.29-0.46-0.43-0.69c-0.29-0.46-0.54-0.94-0.8-1.44c-0.11-0.21-0.22-0.45-0.34-0.65c-0.16-0.32-0.3-0.65-0.45-0.99
						c-0.06-0.19-0.16-0.4-0.22-0.59c-0.1-0.22-0.18-0.45-0.26-0.67c-0.22-0.59-0.4-1.2-0.57-1.8c-0.06-0.22-0.13-0.46-0.18-0.69
						c-0.06-0.26-0.13-0.51-0.18-0.77c-0.06-0.24-0.11-0.49-0.14-0.75c-0.03-0.16-0.06-0.32-0.08-0.49
						c-0.05-0.22-0.08-0.45-0.11-0.69c-0.02-0.19-0.05-0.38-0.06-0.56c-0.05-0.35-0.08-0.7-0.08-1.07
						c-0.03-0.24-0.03-0.49-0.05-0.73c-0.02-0.29-0.02-0.59-0.02-0.88c0-3.62,0.78-7.05,2.17-10.16v-0.02l6.22-40.79h0.02
						l16.43,11.26l16.43-11.26h0.02v0.02l6.22,40.77v0.02c1.39,3.11,2.17,6.54,2.17,10.16c0,0.64-0.02,1.26-0.08,1.88
						c0,0.16-0.02,0.35-0.03,0.53c-0.02,0.1-0.02,0.18-0.03,0.27c-0.02,0.18-0.03,0.37-0.06,0.56c-0.02,0.11-0.03,0.24-0.05,0.33
						c-0.03,0.13-0.03,0.24-0.06,0.35c-0.02,0.18-0.05,0.33-0.08,0.49c-0.18,1.07-0.43,2.11-0.75,3.11
						c-0.11,0.3-0.21,0.59-0.32,0.89c-0.64,1.79-1.48,3.46-2.49,5.04c-0.14,0.22-0.29,0.45-0.45,0.65
						c-0.16,0.22-0.32,0.46-0.48,0.67c-0.16,0.21-0.32,0.43-0.49,0.64c-1,1.28-2.14,2.44-3.38,3.49c-0.18,0.18-0.38,0.34-0.57,0.49
						l-0.03,0.02c-0.22,0.18-0.43,0.34-0.65,0.49c-0.22,0.19-0.48,0.37-0.72,0.53c-0.37,0.26-0.75,0.53-1.13,0.75
						c-0.29,0.18-0.57,0.33-0.88,0.49l1.2,10.32l3.16,27.29h38.33l7.98-18.92v-0.02l0.35-0.83l0.02-0.02l29.69-70.48L384.55,547.23z
						"/>
					<g>
						<polygon class="st1" points="263.92,583.64 228.53,547.23 223.61,516.05 255.63,556.68 						"/>
						<path class="st1" d="M306.55,541.22v12.65l-16.43-2.11h-0.02l-6.22,40.79v0.02c-1.39,3.11-2.17,6.54-2.17,10.16
							c0,0.29,0,0.59,0.02,0.88c0.02,0.24,0.02,0.49,0.05,0.73c0,0.37,0.03,0.72,0.08,1.07c0.02,0.18,0.05,0.37,0.06,0.56
							c0.03,0.24,0.06,0.46,0.11,0.69c0.02,0.18,0.05,0.33,0.08,0.49c0.03,0.26,0.08,0.51,0.14,0.75c0.05,0.26,0.11,0.51,0.18,0.77
							c0.05,0.22,0.11,0.46,0.18,0.69c0.18,0.61,0.35,1.21,0.57,1.8c0.08,0.22,0.16,0.45,0.26,0.67c0.06,0.19,0.16,0.4,0.22,0.59
							c0.14,0.33,0.29,0.67,0.45,0.99c0.11,0.21,0.22,0.45,0.34,0.65c0.26,0.49,0.51,0.97,0.8,1.44c0.14,0.22,0.27,0.45,0.43,0.69
							v0.02c0.13,0.21,0.29,0.43,0.43,0.64c0.16,0.22,0.32,0.45,0.48,0.69c0.32,0.41,0.65,0.83,0.99,1.24
							c0.18,0.21,0.37,0.43,0.57,0.64c0.16,0.18,0.32,0.35,0.49,0.53c0.02,0.03,0.05,0.08,0.08,0.1c0.16,0.16,0.3,0.3,0.46,0.46
							c0.08,0.08,0.16,0.16,0.24,0.22c0.14,0.14,0.27,0.27,0.43,0.4c0.21,0.19,0.4,0.37,0.61,0.54c0.21,0.18,0.41,0.35,0.62,0.51
							c0.19,0.16,0.4,0.32,0.59,0.46c0.06,0.03,0.13,0.08,0.18,0.14c0.19,0.13,0.35,0.24,0.54,0.37c0.22,0.16,0.43,0.3,0.67,0.45
							c0.24,0.16,0.46,0.29,0.7,0.45c0.22,0.13,0.43,0.26,0.69,0.38v0.02h0.02l-1.2,10.34l-3.16,27.28h-38.59l-8.17-19.51
							l-29.61-70.75l14.79-24.55l35.4,36.4l-8.3-26.96l-32.02-40.63l31.28,23l34.66,1.45h0.02l1.8,0.08h0.02L306.55,541.22z"/>
						<polygon class="st2" points="263.92,583.64 243.35,642.52 213.74,571.78 228.53,547.24 						"/>
						<polygon class="st2" points="290.1,551.76 263.92,583.64 255.63,556.68 						"/>
						<polygon class="st3" points="290.1,662.04 251.51,662.04 243.35,642.52 263.92,583.64 						"/>
						<polygon class="st1" points="349.17,583.64 384.56,547.23 389.48,516.05 357.47,556.68 						"/>
						<path class="st1" d="M399.36,571.78l-29.69,70.48l-0.02,0.02l-0.35,0.83v0.02l-7.98,18.92h-38.33l-3.16-27.29l-1.2-10.32
							c0.3-0.16,0.59-0.32,0.88-0.49c0.38-0.22,0.77-0.49,1.13-0.75c0.24-0.16,0.49-0.34,0.72-0.53c0.22-0.16,0.43-0.32,0.65-0.49
							l0.03-0.02c0.19-0.16,0.4-0.32,0.57-0.49c1.24-1.05,2.38-2.22,3.38-3.49c0.18-0.21,0.34-0.43,0.49-0.64
							c0.16-0.21,0.32-0.45,0.48-0.67c0.16-0.21,0.3-0.43,0.45-0.65c1.01-1.58,1.85-3.25,2.49-5.04c0.11-0.3,0.21-0.59,0.32-0.89
							c0.32-1.01,0.57-2.04,0.75-3.11c0.03-0.16,0.06-0.32,0.08-0.49c0.03-0.11,0.03-0.22,0.06-0.35c0.02-0.1,0.03-0.22,0.05-0.33
							c0.03-0.19,0.05-0.38,0.06-0.56c0.02-0.1,0.02-0.18,0.03-0.27c0.02-0.18,0.03-0.37,0.03-0.53c0.06-0.62,0.08-1.24,0.08-1.88
							c0-3.62-0.78-7.05-2.17-10.16v-0.02l-6.22-40.77v-0.02h-0.02l-16.43,2.11v-12.65l15.17-0.64l1.79-0.08h0.03l34.66-1.45
							l31.27-22.99h0.02v0.02l-0.02,0.02l-11.68,14.82l-4.31,5.46l-0.48,0.61l-15.54,19.7v0.02l-8.3,26.94l35.38-36.4L399.36,571.78
							z"/>
						<polygon class="st2" points="399.36,571.78 369.66,642.27 369.65,642.28 349.17,583.64 384.56,547.24 						"/>
						<polygon class="st2" points="357.47,556.68 357.47,556.69 349.17,583.64 322.99,551.78 322.99,551.76 						"/>
						<polygon class="st3" points="369.66,642.27 369.65,642.28 361.32,662.04 323,662.04 349.17,583.64 						"/>
						<polygon class="st2" points="329.22,592.55 306.55,577.89 283.88,592.55 290.1,551.76 290.12,551.76 306.55,563.03 
							322.98,551.76 322.99,551.76 322.99,551.78 						"/>
						<polygon class="st2" points="322.98,551.76 306.55,563.03 290.12,551.76 306.55,553.87 						"/>
						<polygon class="st4" points="306.55,497.35 306.55,563.01 290.12,551.76 290.1,551.76 255.63,556.68 223.61,516.05 
							244.51,461.19 239.8,423.11 239.8,423.09 270.61,427.8 290.1,417.97 270.61,427.82 266.09,438.89 275.97,490.68 
							277.24,497.35 280.74,502.04 283.88,506.28 						"/>
						<polygon class="st1" points="289.51,539.05 278.27,511.37 283.89,506.28 296.6,522.99 						"/>
						<polygon class="st5" points="278.27,511.37 271.55,501.96 273.06,497.87 277.25,497.36 283.89,506.28 						"/>
						<polygon class="st5" points="290.1,551.76 255.63,556.68 223.61,516.05 289.51,539.05 289.58,540.5 						"/>
						<polygon class="st1" points="239.8,423.11 266.09,438.89 244.51,461.19 						"/>
						<polygon class="st2" points="266.09,438.89 244.51,461.19 271.55,501.96 273.06,497.87 277.25,497.36 						"/>
						<polygon class="st5" points="342.49,427.82 306.55,451.83 270.61,427.82 290.1,417.98 306.55,425.67 323,417.98 						"/>
						<polygon class="st4" points="389.5,516.05 389.48,516.06 389.48,516.08 389.47,516.09 377.79,530.91 373.48,536.37 
							373,536.98 357.48,556.69 357.47,556.69 322.99,551.76 322.98,551.76 306.55,563.01 306.55,497.35 329.22,506.28 
							333.7,500.24 333.7,500.22 335.85,497.35 336.6,493.44 336.6,493.43 347.02,438.89 342.49,427.82 373.29,423.11 
							368.59,461.19 						"/>
						<polygon class="st6" points="316.49,522.99 306.55,522.99 296.6,522.99 289.51,539.05 306.55,552.91 323.59,539.05 						"/>
						<polygon class="st1" points="323.59,539.05 334.83,511.37 329.21,506.28 316.5,522.99 						"/>
						<polygon class="st2" points="306.55,497.36 283.89,506.28 296.6,522.99 306.55,522.99 316.49,522.99 329.21,506.28 						"/>
						<polygon class="st5" points="334.83,511.37 341.55,501.96 340.04,497.87 335.85,497.36 329.21,506.28 						"/>
						<polygon class="st5" points="389.49,516.05 323.59,539.05 323,551.76 357.48,556.68 						"/>
						<polygon class="st4" points="323.6,539.05 323.54,540.5 322.99,551.76 322.98,551.76 306.55,563.03 290.12,551.76 
							290.1,551.76 289.57,540.5 289.51,539.05 291.38,540.58 291.39,540.58 306.55,552.91 321.72,540.58 						"/>
						<polygon class="st1" points="373.3,423.11 347.01,438.89 368.59,461.19 						"/>
						<polygon class="st3" points="347.01,438.89 335.88,497.23 335.86,497.36 329.22,506.28 306.55,497.36 283.89,506.28 
							277.25,497.36 266.09,438.89 270.61,427.82 306.55,451.83 342.49,427.82 						"/>
						<polygon class="st2" points="347.01,438.89 368.59,461.19 341.55,501.96 340.04,497.87 335.85,497.36 						"/>
					</g>
				</g>
			</g>
			<polygon class="st4" points="329.22,592.55 329.22,592.57 317.52,614.74 316.5,605.83 311.76,592.55 306.55,577.89 			"/>
			<polygon class="st1" points="335.48,606.81 319.84,634.75 318.65,624.43 317.52,614.74 329.21,592.56 			"/>
			<polygon class="st1" points="295.57,614.74 294.45,624.42 293.25,634.76 277.61,606.81 283.89,592.56 			"/>
			<polygon class="st4" points="306.55,577.89 301.33,592.55 296.59,605.83 295.57,614.74 283.88,592.57 283.88,592.55 			"/>
			<ellipse class="st6" cx="274.84" cy="500.33" rx="5.99" ry="9.84"/>
			<ellipse class="st6" cx="339.58" cy="501.96" rx="5.99" ry="9.84"/>
		</g>
		<polygon class="st2" points="258.26,662.04 274.8,642.7 290.1,662.04 		"/>
		<polygon class="st2" points="243.35,642.52 223.61,662.04 258.26,662.04 		"/>
		<polygon class="st2" points="354.84,662.04 338.3,642.7 323,662.04 		"/>
		<polygon class="st2" points="369.75,642.52 389.49,662.04 354.84,662.04 		"/>
	</g>
	<g>
		<g>
			<text transform="matrix(1 0 0 1 421.4795 539.0736)" class="st1 st7 st8">Wombat</text>
		</g>
		<g>
			<text transform="matrix(1 0 0 1 443.4009 616.1342)" class="st2 st9 st10">Home Loans</text>
		</g>
	</g>
</g>
</svg>
